# xmcd
#
# Track frame offsets:
#	150
#	16045
#	29372
#	44920
#	58022
#	71432
#	89112
#	107347
#	119945
#	136202
#	151627
#	169092
#
# Disc length: 2402 seconds
#
# Revision: 1
# Processed by: cddbd v1.4PL0 Copyright (c) Steve Scherf et al.
# Submitted via: EasyCDDAExtractor 6.0.0.1
#
DISCID=a109600c
DTITLE=Miltinho Rodrigues - Meu Martírio(Dimas Som)
DYEAR=1975
DGENRE=Country
TTITLE0=meu martírio-miltinho rodrigues
TTITLE1=pensando em ti-miltinho rodrigues
TTITLE2=quando a gente gosta de alguém-miltinho rodrigues
TTITLE3=parabéns querida-miltinho rodrigues
TTITLE4=dama de vermelho-miltinho rodrigues
TTITLE5=crucifixo de pedra-miltinho rodrigues
TTITLE6=jamais terei ilusão-miltinho rodrigues
TTITLE7=a noiva do meu bairro-miltinho rodrigues
TTITLE8=tome mais um copo de cerveja comigo-miltinho rodrigues
TTITLE9=meus dias felizes-miltinho rodrigues
TTITLE10=minha proposta-miltinho rodrigues
TTITLE11=você acabou com a minha juventude-miltinho rodrigues
EXTD=
EXTT0=
EXTT1=
EXTT2=
EXTT3=
EXTT4=
EXTT5=
EXTT6=
EXTT7=
EXTT8=
EXTT9=
EXTT10=
EXTT11=
PLAYORDER=
